# xmcd
#
# Track frame offsets:
#        150
#        12395
#        29967
#
# Disc length: 535 seconds
#
# Revision: 3
# Processed by: cddbd v1.5.1PL0 Copyright (c) Steve Scherf et al.
# Submitted via: ExactAudioCopy v0.95a4
#
DISCID=23021503
DTITLE=DAISY CHAINSAW - LOVE SICK PLEASURE
DYEAR=1991
DGENRE=Rock
TTITLE0=LOVE YOUR MONEY
TTITLE1=GET REA - PLEASURE
TTITLE2=SICK of SEX
EXTD=
EXTT0=
EXTT1=
EXTT2=
PLAYORDER=
